<?xml version="1.0" standalone="no"?><!DOCTYPE svg PUBLIC "-//W3C//DTD SVG 1.1//EN" "http://www.w3.org/Graphics/SVG/1.1/DTD/svg11.dtd"><svg t="1646098931679" class="icon" viewBox="0 0 1024 1024" version="1.1" xmlns="http://www.w3.org/2000/svg" p-id="5938" xmlns:xlink="http://www.w3.org/1999/xlink" width="200" height="200"><defs><style type="text/css"></style></defs><path d="M545.74608 322.467319l69.040423 69.016887-68.921719 68.943209L545.74608 322.467319 545.74608 322.467319zM545.74608 745.002728l69.040423-69.003584-68.921719-68.987211L545.74608 745.002728 545.74608 745.002728zM472.113059 533.765723 322.862827 384.16552l43.267433-43.274596 118.882598 118.942973 0-284.990776 216.21846 216.122269L558.432007 533.765723l142.800333 142.710282L485.013881 892.744607 485.013881 607.695502 366.13026 726.519772l-43.267433-43.082214L472.113059 533.765723 472.113059 533.765723zM512.076236 951.147762c182.223205 0 307.85246-86.62287 307.85246-417.382039 0-330.834894-125.629255-417.457764-307.85246-417.457764-182.257997 0-308.006979 86.62287-308.006979 417.457764C204.069257 864.523869 329.818239 951.147762 512.076236 951.147762L512.076236 951.147762z" p-id="5939"></path></svg>