<?xml version="1.0" standalone="no"?><!DOCTYPE svg PUBLIC "-//W3C//DTD SVG 1.1//EN" "http://www.w3.org/Graphics/SVG/1.1/DTD/svg11.dtd"><svg class="icon" width="32px" height="32.00px" viewBox="0 0 1024 1024" version="1.1" xmlns="http://www.w3.org/2000/svg"><path d="M512 618.667m-64 0a64 64 0 1 0 128 0 64 64 0 1 0-128 0Z" fill="#EF502F" /><path d="M554.667 597.333v199.57h-85.334v-199.57z" fill="#EF502F" /><path d="M860.444 362.667c31.42 0 56.89 25.47 56.89 56.889V903.11c0 31.419-25.47 56.889-56.89 56.889H163.556c-31.42 0-56.89-25.47-56.89-56.889V419.556c0-31.42 25.47-56.89 56.89-56.89h696.888zM832 448H192v426.667h640V448z" fill="#333333" /><path d="M512 31.653c135.387 0 245.872 106.617 252.075 240.47l0.275 11.88V421.98h-85.333V284.003c0-92.24-74.776-167.017-167.017-167.017-88.946 0-161.653 69.53-166.733 157.204l-0.284 9.813V421.98H259.65V284.003c0-139.37 112.98-252.35 252.35-252.35z" fill="#333333" /></svg>