<?xml version="1.0" standalone="no"?><!DOCTYPE svg PUBLIC "-//W3C//DTD SVG 1.1//EN" "http://www.w3.org/Graphics/SVG/1.1/DTD/svg11.dtd"><svg class="icon" width="32px" height="32.00px" viewBox="0 0 1024 1024" version="1.1" xmlns="http://www.w3.org/2000/svg"><path d="M512 42.667c259.206 0 469.333 210.127 469.333 469.333S771.206 981.333 512 981.333 42.667 771.206 42.667 512 252.794 42.667 512 42.667zM512 128c-212.077 0-384 171.923-384 384s171.923 384 384 384 384-171.923 384-384-171.923-384-384-384z" fill="#333330" /><path d="M414.253 281.61c15.755-14.514 39.495-14.919 55.677-1.851l4.612 4.324 190.848 207.17c13.954 15.148 14.917 37.776 3.173 53.946l-4.384 5.132L473.33 741.18c-16.663 16.662-43.678 16.662-60.34 0-15.148-15.148-16.525-38.851-4.131-55.554l4.131-4.786L574.862 518.94 411.78 341.9c-14.514-15.756-14.919-39.496-1.851-55.678l4.324-4.612z" fill="#EF502F" /></svg>