<?xml version="1.0" standalone="no"?><!DOCTYPE svg PUBLIC "-//W3C//DTD SVG 1.1//EN" "http://www.w3.org/Graphics/SVG/1.1/DTD/svg11.dtd"><svg class="icon" width="32px" height="32.00px" viewBox="0 0 1024 1024" version="1.1" xmlns="http://www.w3.org/2000/svg"><path d="M512 63.627184c117.13367 0 212.090283 94.956614 212.090283 212.090284v212.091278C724.090283 604.942416 629.134664 699.899029 512 699.899029c-117.13367 0-212.090283-94.956614-212.090283-212.090283V275.717468C299.909717 158.583798 394.865336 63.627184 512 63.627184z m0 84.835915c-67.352357 0-122.483324 52.325406-126.961087 118.542416l-0.293282 8.711953v212.091278c0 70.280202 56.974167 127.254369 127.254369 127.254369 67.352357 0 122.483324-52.325406 126.961087-118.542416l0.293282-8.711953V275.717468c0-70.280202-56.974167-127.254369-127.254369-127.254369zM512 757.738128c21.474175 0 39.222183 15.957499 42.030726 36.662183l0.387728 5.756272v181.115774c0 23.426734-18.99172 42.418454-42.418454 42.418455-21.474175 0-39.222183-15.958493-42.030726-36.662183l-0.387728-5.756272V800.155588c0-23.426734 18.99172-42.41746 42.418454-42.41746z" fill="#333333" /><path d="M681.672823 938.853903c23.426734 0 42.41746 18.99172 42.41746 42.418454 0 21.474175-15.957499 39.222183-36.662182 42.030726l-5.756272 0.387729H342.328171c-23.426734 0-42.41746-18.99172-42.41746-42.418455 0-21.474175 15.957499-39.222183 36.662182-42.030726l5.756272-0.387728h339.344652z" fill="#333333" /><path d="M795.039565 486.244909c23.426734 0 42.418454 18.990726 42.418454 42.41746 0 160.731216-127.040621 291.790291-286.187122 298.242485l-12.303907 0.248544h-60.317576c-161.326726 0-292.107433-130.780707-292.107433-292.107433 0-23.426734 18.99172-42.41746 42.418454-42.41746s42.41746 18.990726 42.41746 42.41746c0 110.780893 86.908769 201.260738 196.263022 206.984202l11.008497 0.287316h60.317576c117.998602 0 213.655115-95.656513 213.655115-213.655114 0-23.426734 18.990726-42.41746 42.41746-42.41746z" fill="#EF502F" /></svg>