<?xml version="1.0" standalone="no"?><!DOCTYPE svg PUBLIC "-//W3C//DTD SVG 1.1//EN" "http://www.w3.org/Graphics/SVG/1.1/DTD/svg11.dtd"><svg class="icon" width="32px" height="32.00px" viewBox="0 0 1024 1024" version="1.1" xmlns="http://www.w3.org/2000/svg"><path d="M789.333 368.24c21.6 0 39.452 16.051 42.278 36.877l0.389 5.79V880.24c0 21.6-16.051 39.452-36.877 42.277l-5.79 0.39H234.667c-21.6 0-39.452-16.052-42.278-36.877l-0.389-5.79V410.907c0-23.564 19.103-42.667 42.667-42.667 21.6 0 39.452 16.051 42.277 36.877l0.39 5.79v426.611h469.333V410.907c0-21.6 16.051-39.452 36.877-42.277l5.79-0.39z" fill="#333333" /><path d="M64.346438 484.801997l422.378922-379.712098c14.919246-13.411694 36.897539-14.469526 52.924822-3.276026l4.617407 3.726453 409.326438 379.711391c17.276033 16.025868 18.290024 43.021791 2.263449 60.297117-14.690143 15.835656-38.598131 18.007181-55.78719 5.914948l-4.50922-3.650792-380.793972-353.192766-393.371281 353.641779c-16.063345 14.441242-40.06962 14.438413-56.093366 0.840042l-4.161324-4.045357c-14.440535-16.064052-14.437706-40.070327-0.839336-56.094074l4.044651-4.160617z" fill="#333333" /><path d="M512 580.098c21.6 0 39.452 16.052 42.277 36.878l0.39 5.79v154.596c0 23.564-19.103 42.667-42.667 42.667-21.6 0-39.452-16.052-42.277-36.877l-0.39-5.79V622.765c0-23.564 19.103-42.667 42.667-42.667z" fill="#EF502F" /></svg>