<?xml version="1.0" standalone="no"?><!DOCTYPE svg PUBLIC "-//W3C//DTD SVG 1.1//EN" "http://www.w3.org/Graphics/SVG/1.1/DTD/svg11.dtd"><svg class="icon" width="32px" height="32.00px" viewBox="0 0 1024 1024" version="1.1" xmlns="http://www.w3.org/2000/svg"><path d="M585.188 32.141c23.564 0 42.666 19.103 42.666 42.667 0 21.6-16.051 39.452-36.877 42.277l-5.79 0.39-454.229-0.056v783.246h704.285l0.008-567.234c0-21.6 16.052-39.452 36.877-42.278l5.79-0.39c21.6 0 39.452 16.052 42.277 36.878l0.39 5.79v609.917c0 21.6-16.052 39.452-36.877 42.277l-5.79 0.39H88.336c-21.6 0-39.452-16.051-42.277-36.877l-0.39-5.79V74.808c0-21.6 16.052-39.452 36.877-42.277l5.79-0.39h496.852z" fill="#333333" /><path d="M661.06 715.948c23.564 0 42.667 19.102 42.667 42.666 0 21.6-16.052 39.452-36.877 42.277l-5.79 0.39H311.21c-23.565 0-42.667-19.103-42.667-42.667 0-21.6 16.051-39.452 36.877-42.277l5.79-0.39h349.85z" fill="#EF502F" /><path d="M410.765 530.03l-6.187-70.8a56.889 56.889 0 0 1 14.815-43.48L724.329 84.44c21.278-23.116 57.267-24.608 80.385-3.332l73.624 68.655c22.872 21.33 24.239 57.121 3.06 80.132l-305.976 332.44a56.895 56.895 0 0 1-40.768 18.352l-66.125 1.269c-29.913 0.574-55.159-22.12-57.764-51.926z m82.722-33.873l27.393-0.513 278.552-302.715-31.745-29.603-276.961 301.009 2.761 31.822z" fill="#333333" /></svg>