<?xml version="1.0" standalone="no"?><!DOCTYPE svg PUBLIC "-//W3C//DTD SVG 1.1//EN" "http://www.w3.org/Graphics/SVG/1.1/DTD/svg11.dtd"><svg class="icon" width="32px" height="32.00px" viewBox="0 0 1024 1024" version="1.1" xmlns="http://www.w3.org/2000/svg"><path d="M874.667 605.333c21.6 0 39.452 16.052 42.277 36.877l0.39 5.79v226.667c0 21.6-16.052 39.452-36.878 42.277l-5.79 0.39H648c-23.564 0-42.667-19.103-42.667-42.667 0-21.6 16.052-39.452 36.877-42.278L648 832h184V648c0-21.6 16.051-39.452 36.877-42.277l5.79-0.39z m-725.334 0c21.6 0 39.452 16.052 42.278 36.877L192 648v184h184c21.6 0 39.452 16.051 42.277 36.877l0.39 5.79c0 21.6-16.052 39.452-36.877 42.277l-5.79 0.39H149.333c-21.6 0-39.452-16.052-42.277-36.878l-0.39-5.79V648c0-23.564 19.103-42.667 42.667-42.667z m725.334-498.666c21.6 0 39.452 16.051 42.277 36.877l0.39 5.79V376c0 23.564-19.103 42.667-42.667 42.667-21.6 0-39.452-16.052-42.278-36.877L832 376V192H648c-21.6 0-39.452-16.051-42.277-36.877l-0.39-5.79c0-21.6 16.052-39.452 36.877-42.277l5.79-0.39h226.667z m-498.667 0c23.564 0 42.667 19.102 42.667 42.666 0 21.6-16.052 39.452-36.877 42.278L376 192H192v184c0 21.6-16.051 39.452-36.877 42.277l-5.79 0.39c-21.6 0-39.452-16.052-42.277-36.877l-0.39-5.79V149.333c0-21.6 16.052-39.452 36.878-42.277l5.79-0.39H376z" fill="#333330" /><path d="M85.333 469.333h832C940.897 469.333 960 488.436 960 512c0 21.6-16.051 39.452-36.877 42.277l-5.79 0.39h-832c-23.564 0-42.666-19.103-42.666-42.667 0-21.6 16.051-39.452 36.877-42.277l5.79-0.39z" fill="#EF502F" /></svg>