<?xml version="1.0" standalone="no"?><!DOCTYPE svg PUBLIC "-//W3C//DTD SVG 1.1//EN" "http://www.w3.org/Graphics/SVG/1.1/DTD/svg11.dtd"><svg class="icon" width="32px" height="32.00px" viewBox="0 0 1024 1024" version="1.1" xmlns="http://www.w3.org/2000/svg"><path d="M512 42.667c259.206 0 469.333 210.127 469.333 469.333S771.206 981.333 512 981.333 42.667 771.206 42.667 512 252.794 42.667 512 42.667zM512 128c-212.077 0-384 171.923-384 384s171.923 384 384 384 384-171.923 384-384-171.923-384-384-384z" fill="#333330" /><path d="M671.713 512.42c23.564 0 42.667 19.103 42.667 42.667 0 111.771-90.609 202.38-202.38 202.38s-202.38-90.609-202.38-202.38c0-23.564 19.103-42.667 42.667-42.667s42.667 19.103 42.667 42.667c0 64.643 52.403 117.046 117.046 117.046s117.046-52.403 117.046-117.046c0-23.564 19.103-42.667 42.667-42.667z" fill="#EF502F" /></svg>