<?xml version="1.0" standalone="no"?><!DOCTYPE svg PUBLIC "-//W3C//DTD SVG 1.1//EN" "http://www.w3.org/Graphics/SVG/1.1/DTD/svg11.dtd"><svg class="icon" width="32px" height="32.00px" viewBox="0 0 1024 1024" version="1.1" xmlns="http://www.w3.org/2000/svg"><path d="M924.444 64c31.42 0 56.89 25.47 56.89 56.889v568.889c0 31.419-25.47 56.889-56.89 56.889h-263.11l-98.884 109.97c-21.007 23.362-56.977 25.272-80.34 4.264L362.667 746.667H99.556c-31.42 0-56.89-25.47-56.89-56.89V120.89C42.667 89.47 68.137 64 99.557 64h824.888zM896 149.276H128v512l268.912 0.057 121.687 116.452 104.707-116.452L896 661.276v-512z" fill="#333333" /><path d="M343.653 384.62c23.564 0 42.667 19.103 42.667 42.668 0 21.6-16.052 39.451-36.877 42.277l-5.79 0.39H258.32c-23.565 0-42.667-19.103-42.667-42.667 0-21.6 16.051-39.452 36.877-42.278l5.79-0.39h85.333z m213.333 0c23.564 0 42.667 19.103 42.667 42.668 0 21.6-16.051 39.451-36.877 42.277l-5.79 0.39h-85.333c-23.564 0-42.667-19.103-42.667-42.667 0-21.6 16.052-39.452 36.877-42.278l5.79-0.39h85.333z m213.334 0c23.564 0 42.666 19.103 42.666 42.668 0 21.6-16.051 39.451-36.877 42.277l-5.79 0.39h-85.333c-23.564 0-42.666-19.103-42.666-42.667 0-21.6 16.051-39.452 36.877-42.278l5.79-0.39h85.333z" fill="#EF502F" /></svg>