<?xml version="1.0" standalone="no"?><!DOCTYPE svg PUBLIC "-//W3C//DTD SVG 1.1//EN" "http://www.w3.org/Graphics/SVG/1.1/DTD/svg11.dtd"><svg class="icon" width="32px" height="32.00px" viewBox="0 0 1024 1024" version="1.1" xmlns="http://www.w3.org/2000/svg"><path d="M514.745 43.811c188.505 0 342.416 146.968 349.164 331.139l0.23 12.613v242.968h-85.333V387.563c0-142.541-118.049-258.419-264.061-258.419-141.841 0-257.294 109.35-263.775 246.269l-0.287 12.15v242.968H165.35V387.563c0-190.028 156.605-343.752 349.395-343.752z" fill="#333330" /><path d="M924.77 467.319c31.419 0 56.889 25.47 56.889 56.889v212.646c0 31.42-25.47 56.89-56.889 56.89h-89.233c-31.419 0-56.889-25.47-56.889-56.89V502.34a34.42 34.42 0 0 1 10.612-24.858 36.585 36.585 0 0 1 25.306-10.163H924.77z m-28.486 85.3h-32.312V708.38h32.312V552.62zM104.593 467.319c-31.419 0-56.889 25.47-56.889 56.889v212.646c0 31.42 25.47 56.89 56.889 56.89h89.233c31.419 0 56.889-25.47 56.889-56.89V502.34a34.42 34.42 0 0 0-10.612-24.858 36.585 36.585 0 0 0-25.306-10.163H104.593z m28.45 85.3h32.37V708.38h-32.37V552.62z" fill="#333330" /><path d="M498.424 928.414v-56.889c-137.692 0-250.058-108.432-256.367-244.565l-0.28-12.081H184.89c0 169.038 133.77 306.832 301.224 313.298l12.311 0.237z" fill="#333333" /><path d="M411.293 876.924h118.124v85.333H411.293z" fill="#EF502F" /></svg>