<?xml version="1.0" standalone="no"?><!DOCTYPE svg PUBLIC "-//W3C//DTD SVG 1.1//EN" "http://www.w3.org/Graphics/SVG/1.1/DTD/svg11.dtd"><svg class="icon" width="32px" height="32.00px" viewBox="0 0 1024 1024" version="1.1" xmlns="http://www.w3.org/2000/svg"><path d="M548.087 109.343c31.42 0 56.89 25.47 56.89 56.89v162.64H889.42c31.419 0 56.889 25.47 56.889 56.889v472.006c0 31.419-25.47 56.889-56.89 56.889H277.866c-31.419 0-56.889-25.47-56.889-56.89V385.763c0-31.42 25.47-56.89 56.89-56.89h33.131v-162.64c0-31.419 25.47-56.889 56.889-56.889h180.201z m-28.464 85.33H396.288l0.042 219.533-90.04-0.055V829.27h554.666V414.151l-341.313 0.055-0.02-219.532z" fill="#333333" /><path d="M895.706 492.941c23.564 0 42.667 19.103 42.667 42.667 0 21.6-16.052 39.452-36.877 42.277l-5.79 0.39h-140.5c-23.564 0-42.667-19.103-42.667-42.667 0-21.6 16.052-39.452 36.877-42.277l5.79-0.39h140.5zM895.706 667.136c23.564 0 42.667 19.102 42.667 42.666 0 21.6-16.052 39.452-36.877 42.278l-5.79 0.389H720.081c-23.564 0-42.667-19.102-42.667-42.667 0-21.6 16.052-39.452 36.877-42.277l5.79-0.39h175.625z" fill="#333333" /><path d="M115.478 384c21.6 0 39.452 16.051 42.278 36.877l0.39 5.79v407.69c0 23.564-19.103 42.666-42.668 42.666-21.6 0-39.451-16.05-42.277-36.877l-0.39-5.79v-407.69c0-23.563 19.103-42.666 42.667-42.666z" fill="#E85336" /></svg>