<?xml version="1.0" standalone="no"?><!DOCTYPE svg PUBLIC "-//W3C//DTD SVG 1.1//EN" "http://www.w3.org/Graphics/SVG/1.1/DTD/svg11.dtd"><svg class="icon" width="32px" height="32.00px" viewBox="0 0 1024 1024" version="1.1" xmlns="http://www.w3.org/2000/svg"><path d="M881.778 42.667c31.419 0 56.889 25.47 56.889 56.889v824.888c0 31.42-25.47 56.89-56.89 56.89H142.223c-31.419 0-56.889-25.47-56.889-56.89V99.556c0-31.42 25.47-56.89 56.89-56.89h739.555zM853.333 128H170.667v768h682.666V128z" fill="#333333" /><path d="M525.779 630.65c149.676 0 270.747 122.927 270.747 274.244 0 23.565-19.102 42.667-42.667 42.667-23.564 0-42.666-19.102-42.666-42.667 0-104.477-83.16-188.911-185.414-188.911-102.255 0-185.414 84.434-185.414 188.911 0 23.565-19.103 42.667-42.667 42.667s-42.667-19.102-42.667-42.667c0-151.317 121.071-274.244 270.748-274.244z" fill="#333333" /><path d="M525.779 256c99.309 0 179.814 80.506 179.814 179.815S625.088 615.629 525.78 615.629c-99.31 0-179.815-80.505-179.815-179.814 0-99.31 80.506-179.815 179.815-179.815z m0 85.333c-52.18 0-94.482 42.301-94.482 94.482 0 52.18 42.301 94.48 94.482 94.48 52.18 0 94.481-42.3 94.481-94.48 0-52.18-42.3-94.482-94.481-94.482z" fill="#EF502F" /><path d="M191.357 213.333c23.565 0 42.667 19.103 42.667 42.667 0 21.6-16.051 39.452-36.877 42.277l-5.79 0.39H65.94c-23.564 0-42.667-19.103-42.667-42.667 0-21.6 16.051-39.452 36.877-42.277l5.79-0.39h125.417zM191.357 454.4c23.565 0 42.667 19.103 42.667 42.667 0 21.6-16.051 39.452-36.877 42.277l-5.79 0.39H65.94c-23.564 0-42.667-19.103-42.667-42.667 0-21.6 16.051-39.452 36.877-42.278l5.79-0.389h125.417zM191.357 695.467c23.565 0 42.667 19.102 42.667 42.666 0 21.6-16.051 39.452-36.877 42.278l-5.79 0.389H65.94c-23.564 0-42.667-19.103-42.667-42.667 0-21.6 16.051-39.452 36.877-42.277l5.79-0.39h125.417z" fill="#333333" /></svg>