<?xml version="1.0" standalone="no"?><!DOCTYPE svg PUBLIC "-//W3C//DTD SVG 1.1//EN" "http://www.w3.org/Graphics/SVG/1.1/DTD/svg11.dtd"><svg class="icon" width="32px" height="32.00px" viewBox="0 0 1024 1024" version="1.1" xmlns="http://www.w3.org/2000/svg"><path d="M775.111 64l-142.366-0.044A42.68 42.68 0 0 0 594.87 86.95l-2.371 5.47c-11.94 33.822-44.028 56.914-80.499 56.914-33.665 0-63.596-19.676-77.393-49.305l-3.106-7.609c-6.023-17.061-22.153-28.463-40.246-28.463L248.875 64c-54.97 0-99.542 44.573-99.542 99.556v696.888c0 54.983 44.573 99.556 99.556 99.556l142.4-0.01c18.081-0.001 34.198-11.398 40.225-28.445 11.95-33.803 44.029-56.878 80.486-56.878s68.535 23.075 80.486 56.878c6.027 17.047 22.144 28.444 40.224 28.445l142.398 0.01c54.986 0 99.559-44.573 99.559-99.556V163.556c0-54.983-44.573-99.556-99.556-99.556z m-115.314 85.276l115.301 0.057c7.868 0 14.235 6.368 14.235 14.223v696.888l-0.375 3.261c-1.474 6.283-7.114 10.962-13.847 10.962l-115.314-0.057c-30.206-51.95-85.831-85.277-147.797-85.277l-10.865 0.343c-57.556 3.641-108.49 36.016-136.99 84.934l-115.259 0.057c-7.852 0-14.22-6.368-14.22-14.223V163.556l0.376-3.261c1.474-6.283 7.114-10.962 13.847-10.962l115.257-0.057c30.223 52.038 85.865 85.39 147.854 85.39 58.114 0 110.651-29.313 141.687-75.468l6.11-9.922z" fill="#333333" /><path d="M641.047 455.111c31.419 0 56.889 25.47 56.889 56.889 0 29.175-21.962 53.22-50.255 56.506l-6.634 0.383H382.953c-31.419 0-56.889-25.47-56.889-56.889 0-29.175 21.962-53.22 50.255-56.506l6.634-0.383h258.094z" fill="#EF502F" /></svg>