<?xml version="1.0" standalone="no"?><!DOCTYPE svg PUBLIC "-//W3C//DTD SVG 1.1//EN" "http://www.w3.org/Graphics/SVG/1.1/DTD/svg11.dtd"><svg class="icon" width="32px" height="32.00px" viewBox="0 0 1024 1024" version="1.1" xmlns="http://www.w3.org/2000/svg"><path d="M512 42.667c259.206 0 469.333 210.127 469.333 469.333S771.206 981.333 512 981.333 42.667 771.206 42.667 512 252.794 42.667 512 42.667zM512 128c-212.077 0-384 171.923-384 384s171.923 384 384 384 384-171.923 384-384-171.923-384-384-384z" fill="#333330" /><path d="M636.332 281.61c-15.755-14.514-39.496-14.919-55.677-1.851l-4.612 4.324-190.848 207.17c-13.954 15.148-14.917 37.776-3.174 53.946l4.385 5.132L577.254 741.18c16.662 16.662 43.677 16.662 60.34 0 15.147-15.148 16.524-38.851 4.13-55.554l-4.13-4.786-161.89-161.899 163.1-177.04c14.515-15.756 14.92-39.496 1.852-55.678l-4.324-4.612z" fill="#EF502F" /></svg>