<?xml version="1.0" standalone="no"?><!DOCTYPE svg PUBLIC "-//W3C//DTD SVG 1.1//EN" "http://www.w3.org/Graphics/SVG/1.1/DTD/svg11.dtd"><svg class="icon" width="32px" height="32.00px" viewBox="0 0 1024 1024" version="1.1" xmlns="http://www.w3.org/2000/svg"><path d="M881.778 42.667c31.419 0 56.889 25.47 56.889 56.889v824.888c0 31.42-25.47 56.89-56.89 56.89H142.223c-31.419 0-56.889-25.47-56.889-56.89V99.556c0-31.42 25.47-56.89 56.89-56.89h739.555zM853.333 128H170.667v768h682.666V128z" fill="#333333" /><path d="M724.483 328.45c13.195-19.522 39.719-24.652 59.242-11.457 17.748 11.996 23.6 35.007 14.604 53.76l-3.147 5.482-125.213 185.257c-12.276 18.164-36.038 23.827-54.955 14.01l-5.026-3.064-96.554-68.266c-19.24-13.604-23.81-40.23-10.206-59.47 12.367-17.492 35.496-22.859 54.055-13.47l5.415 3.263 60.975 43.087 100.81-149.131z" fill="#EA4B36" /><path d="M409.287 469.333c23.564 0 42.667 19.103 42.667 42.667 0 21.6-16.052 39.452-36.877 42.277l-5.79 0.39H292.133c-23.565 0-42.667-19.103-42.667-42.667 0-21.6 16.051-39.452 36.877-42.277l5.79-0.39h117.154zM292.133 682.667h439.734c23.565 0 42.667 19.102 42.667 42.666 0 21.6-16.051 39.452-36.877 42.278l-5.79 0.389H292.133c-23.565 0-42.667-19.103-42.667-42.667 0-21.6 16.051-39.452 36.877-42.277l5.79-0.39z" fill="#333333" /></svg>