<?xml version="1.0" standalone="no"?><!DOCTYPE svg PUBLIC "-//W3C//DTD SVG 1.1//EN" "http://www.w3.org/Graphics/SVG/1.1/DTD/svg11.dtd"><svg class="icon" width="32px" height="32.00px" viewBox="0 0 1024 1024" version="1.1" xmlns="http://www.w3.org/2000/svg"><path d="M194.068 352.252l193.614-70.942 215.67 126.763-183.114 191.536-73.862 194.611-240.984 128.362c-20.798 11.078-46.638 3.199-57.716-17.6-10.155-19.064-4.38-42.366 12.672-54.65l4.927-3.065 212.684-113.343 68.66-180.75 120.553-126.166-87.95-51.712-155.795 57.08c-20.282 7.431-42.566-1.498-52.384-20.08l-2.358-5.303c-7.431-20.282 1.499-42.566 20.081-52.384l5.302-2.357z" fill="#333330" /><path d="M358.207 576.024c10.37-18.95 33.02-26.904 52.645-19.385l5.266 2.437L639.07 681.078l-146.864 280.07c-10.943 20.87-36.732 28.916-57.6 17.972-19.13-10.03-27.486-32.537-20.317-52.292l2.344-5.309 107.938-205.857-149.417-81.727c-18.95-10.37-26.904-33.02-19.385-52.645l2.437-5.266zM876.09 324.155c15.866-17.423 42.851-18.685 60.274-2.819 15.839 14.424 18.321 38.037 6.722 55.301l-3.903 4.973-173.369 190.38-155.765-74.03c-21.283-10.116-30.336-35.569-20.221-56.851 9.272-19.51 31.432-28.743 51.454-22.355l5.396 2.133 98.566 46.853L876.09 324.155z" fill="#333330" /><path d="M651.636 68.31c-87.713 0-159.03 70.446-159.03 157.61 0 87.163 71.317 157.61 159.03 157.61 87.714 0 159.03-70.447 159.03-157.61 0-87.164-71.316-157.61-159.03-157.61z m0 85.334c40.819 0 73.697 32.477 73.697 72.276s-32.878 72.276-73.697 72.276c-40.818 0-73.697-32.477-73.697-72.276 0-39.8 32.88-72.276 73.697-72.276z" fill="#EF502F" /></svg>