<?xml version="1.0" standalone="no"?><!DOCTYPE svg PUBLIC "-//W3C//DTD SVG 1.1//EN" "http://www.w3.org/Graphics/SVG/1.1/DTD/svg11.dtd"><svg class="icon" width="32px" height="32.00px" viewBox="0 0 1024 1024" version="1.1" xmlns="http://www.w3.org/2000/svg"><path d="M569.49 726.499v178.513H455.712V726.499z" fill="#EF502F" /><path d="M736.456 134.604c31.419 0 56.889 25.47 56.889 56.89v308.17c0 155.05-125.694 280.743-280.744 280.743S231.857 654.714 231.857 499.663v-308.17c0-31.419 25.47-56.889 56.89-56.889h447.709z m-28.474 85.328H317.156l0.035 279.731c0 104.325 81.753 189.555 184.688 195.122l10.722 0.289c104.325 0 189.555-81.753 195.121-184.689l0.29-10.722-0.03-279.73zM684.471 848.123c31.42 0 56.89 25.47 56.89 56.889 0 29.175-21.962 53.22-50.255 56.506l-6.635 0.383h-343.74c-31.42 0-56.89-25.47-56.89-56.89 0-29.174 21.962-53.22 50.255-56.505l6.635-0.383h343.74z" fill="#333333" /><path d="M259.971 203.142v85.334l-100.17-0.05v156.957l129.194 55.428-33.636 78.424-155.007-66.48a42.67 42.67 0 0 1-25.381-32.904l-0.468-6.309V245.81c0-21.6 16.052-39.452 36.877-42.277l5.79-0.39H259.97zM741.05 203.142v85.334l97.846-0.05v156.957L718.593 497l33.636 78.425 146.122-62.67a42.67 42.67 0 0 0 25.381-32.904l0.468-6.309V245.81c0-21.6-16.052-39.452-36.878-42.277l-5.79-0.39H741.05z" fill="#333333" /></svg>