<?xml version="1.0" standalone="no"?><!DOCTYPE svg PUBLIC "-//W3C//DTD SVG 1.1//EN" "http://www.w3.org/Graphics/SVG/1.1/DTD/svg11.dtd"><svg class="icon" width="32px" height="32.00px" viewBox="0 0 1024 1024" version="1.1" xmlns="http://www.w3.org/2000/svg"><path d="M490.667 139.65c178.645 0 323.465 144.82 323.465 323.466V829.71h-646.93V463.116c0-178.645 144.82-323.466 323.465-323.466z m0 85.333c-127.532 0-231.648 100.252-237.841 226.247l-0.291 11.886-0.005 281.218h476.217l0.052-281.218c0-127.532-100.252-231.648-226.247-237.841l-11.885-0.292z" fill="#333333" /><path d="M878.576 745.134c23.564 0 42.667 19.102 42.667 42.667 0 21.6-16.052 39.452-36.877 42.277l-5.79 0.39H102.373c-23.564 0-42.666-19.103-42.666-42.667 0-21.6 16.051-39.452 36.877-42.278l5.79-0.39h776.202z" fill="#333333" /><path d="M573.376 848.27c23.565 0 42.667 19.103 42.667 42.667 0 21.6-16.051 39.452-36.877 42.277l-5.79 0.39H405.333c-23.564 0-42.666-19.103-42.666-42.667 0-21.6 16.051-39.452 36.877-42.277l5.79-0.39h168.042z" fill="#EF502F" /><path d="M490.667 56.631c21.6 0 39.452 16.051 42.277 36.877l0.39 5.79v80.705c0 23.564-19.103 42.666-42.667 42.666-21.6 0-39.452-16.051-42.278-36.877l-0.389-5.79V99.299c0-23.564 19.103-42.667 42.667-42.667z" fill="#333333" /></svg>