<?xml version="1.0" standalone="no"?><!DOCTYPE svg PUBLIC "-//W3C//DTD SVG 1.1//EN" "http://www.w3.org/Graphics/SVG/1.1/DTD/svg11.dtd"><svg t="1646098941696" class="icon" viewBox="0 0 1181 1024" version="1.1" xmlns="http://www.w3.org/2000/svg" p-id="6076" xmlns:xlink="http://www.w3.org/1999/xlink" width="230.6640625" height="200"><defs><style type="text/css"></style></defs><path d="M1181.523011 219.461598a109.487799 109.487799 0 0 0-85.883595-106.940961L615.153392 2.691509a112.402222 112.402222 0 0 0-49.308894 0.105025L85.857339 112.520637C35.288154 124.073307 0 168.025963 0 219.461598c0 51.409379 35.340666 95.362035 85.857339 106.914704l98.749067 22.580218v309.34898c0 97.042423 112.165918 182.84725 406.155099 182.84725s406.155099-85.804827 406.155099-182.84725V348.95652l98.722812-22.580218A109.487799 109.487799 0 0 0 1181.523011 219.461598z m-258.464723 438.843902c0 40.408087-110.774346 109.697848-332.296783 109.697848-221.548693 0-332.296783-69.316017-332.296782-109.697848V365.839171l307.852384 70.366259c16.252505 3.597081 33.082644 3.570825 49.33515-0.105024l307.406031-70.261235v292.466329z m-323.999865-293.490316a40.145526 40.145526 0 0 1-16.593835 0L102.451173 255.117337a36.574701 36.574701 0 0 1-27.778919-43.79512A36.758494 36.758494 0 0 1 102.451173 183.805859L582.464588 74.055499c5.461262-1.181523 11.132572-1.181523 16.593835 0L1079.071838 183.805859a36.600957 36.600957 0 0 1 27.621382 43.9264c-3.20324 13.600643-13.915715 24.208094-27.621382 27.385078l-480.013415 109.697847z m471.690242 37.493664v329.119798a36.758494 36.758494 0 0 0 36.91603 36.574702 36.758494 36.758494 0 0 0 36.942286-36.574702V402.308848a36.758494 36.758494 0 0 0-36.942286-36.574701 36.758494 36.758494 0 0 0-36.91603 36.574701z m36.91603 402.269201c-40.775672 0-73.83206 105.916974-73.832061 146.272549 0 40.408087 33.082644 73.149402 73.832061 73.149402C1148.466623 1024 1181.523011 991.258685 1181.523011 950.850598c0-40.355575-33.082644-146.272549-73.858316-146.272549z" p-id="6077"></path></svg>