<?xml version="1.0" standalone="no"?><!DOCTYPE svg PUBLIC "-//W3C//DTD SVG 1.1//EN" "http://www.w3.org/Graphics/SVG/1.1/DTD/svg11.dtd"><svg t="1646098956193" class="icon" viewBox="0 0 1024 1024" version="1.1" xmlns="http://www.w3.org/2000/svg" p-id="7961" xmlns:xlink="http://www.w3.org/1999/xlink" width="200" height="200"><defs><style type="text/css"></style></defs><path d="M751.104 538.88l-14.656-18.112c49.408-370.88-231.68-479.168-234.56-480.256L492.992 37.248 484.16 40.512C481.28 41.6 200.128 149.824 249.6 520.768L234.88 538.88c-93.888 115.264-93.888 116.224-93.888 128.448 0 1.92 19.2 209.984 90.176 265.536l11.968 5.76 7.68 0c8.256 0 28.352-3.136 38.72-32 2.88-8.064 3.52-18.752 4.48-40.192 2.048-43.008 6.4-132.48 46.08-137.536l25.216-3.264c-17.344 32.064-62.528 149.312 111.616 278.72l14.336 10.688 14.912-9.728c66.24-43.2 174.016-156.416 116.416-279.36l23.232 3.008c39.68 5.12 44.032 94.592 46.08 137.536 1.024 21.44 1.6 32.064 4.48 40.256 10.368 28.864 30.528 32 38.72 32l14.336-1.536 6.976-5.44c69.312-54.4 88.512-262.4 88.512-264.32C844.992 655.104 844.992 654.144 751.104 538.88zM368.064 720.832l-1.92-7.168 6.72 0-2.24 3.072C370.56 716.864 369.472 718.464 368.064 720.832zM618.88 717.504l-1.984-3.84 3.008 0L618.88 717.504zM492.672 951.808c-115.648-92.736-98.368-167.616-86.592-194.304l174.656-0.064C614.016 846.848 528.384 924.352 492.672 951.808zM743.232 868.8c-0.064-1.536-0.128-3.2-0.192-4.864-2.56-53.504-7.04-147.264-62.912-177.216l6.528-24.256L299.392 662.464l6.528 24.256c-55.872 29.952-60.352 123.712-62.912 177.216-0.064 1.344-0.128 2.624-0.192 3.84-28.864-52.352-46.4-159.04-49.92-194.112 13.44-18.56 58.752-74.24 81.728-102.528l28.928-35.712L301.824 524.416C256.256 219.328 448 112.896 492.992 92.352c44.992 20.544 236.736 127.04 191.168 432.128l-1.664 11.072 28.928 35.712c22.912 28.224 68.16 83.776 81.664 102.4C789.312 710.72 771.648 818.24 743.232 868.8z" p-id="7962"></path><path d="M492.992 231.232c-78.784 0-142.976 60.736-142.976 135.424s64.192 135.424 142.976 135.424 142.912-60.736 142.912-135.424S571.84 231.232 492.992 231.232zM492.992 450.88c-50.624 0-91.776-37.76-91.776-84.224s41.152-84.224 91.776-84.224c50.56 0 91.712 37.76 91.712 84.224S543.552 450.88 492.992 450.88z" p-id="7963"></path></svg>